<?xml version="1.0" standalone="no"?>
<!DOCTYPE svg PUBLIC "-//W3C//DTD SVG 20010904//EN"
 "http://www.w3.org/TR/2001/REC-SVG-20010904/DTD/svg10.dtd">
<svg version="1.0" xmlns="http://www.w3.org/2000/svg"
 width="200.000000pt" height="200.000000pt" viewBox="0 0 200.000000 200.000000"
 preserveAspectRatio="xMidYMid meet">

<g transform="translate(0.000000,200.000000) scale(0.100000,-0.100000)"
fill="#000000" stroke="none">
<path d="M782 1734 c-18 -13 -20 -18 -9 -34 14 -24 30 -25 47 -5 9 11 9 18 -2
34 -13 19 -16 19 -36 5z"/>
<path d="M1300 1585 c-10 -13 -9 -19 5 -35 17 -19 19 -19 37 -3 17 15 17 17 2
35 -21 22 -28 22 -44 3z"/>
<path d="M765 1496 c-17 -13 -17 -14 7 -47 71 -94 115 -219 121 -346 3 -81 16
-113 43 -113 11 0 14 18 14 78 0 94 -19 187 -55 273 -26 60 -93 169 -106 169
-3 0 -14 -6 -24 -14z"/>
<path d="M1312 1415 c-87 -27 -158 -101 -181 -190 -23 -84 -13 -134 25 -127
22 4 24 8 19 33 -9 41 20 133 55 173 42 47 88 66 167 69 61 2 68 4 71 23 2 15
-4 23 -20 28 -36 9 -89 6 -136 -9z"/>
<path d="M1010 1385 c0 -21 5 -25 30 -25 25 0 30 4 30 25 0 21 -5 25 -30 25
-25 0 -30 -4 -30 -25z"/>
<path d="M477 1383 c-15 -2 -25 -8 -22 -13 3 -4 -3 -6 -13 -3 -11 2 -26 -3
-35 -11 -8 -9 -20 -16 -24 -16 -5 0 -25 -16 -44 -36 -33 -34 -33 -36 -15 -50
18 -12 22 -12 43 7 12 12 20 27 16 33 -3 6 -3 8 1 4 5 -4 27 3 49 15 67 35
148 28 239 -21 4 -2 12 6 18 18 15 28 -4 43 -81 64 -54 16 -77 17 -132 9z"/>
<path d="M1577 1152 c-14 -16 -15 -21 -4 -36 11 -15 17 -17 35 -7 27 14 27 23
4 45 -18 15 -20 15 -35 -2z"/>
<path d="M490 1125 c0 -20 5 -25 25 -25 20 0 25 5 25 25 0 20 -5 25 -25 25
-20 0 -25 -5 -25 -25z"/>
<path d="M620 976 c-12 -42 -11 -46 18 -88 72 -105 224 -225 338 -267 69 -26
80 -26 128 3 l38 23 -47 12 c-166 42 -355 183 -427 317 -12 24 -26 44 -29 44
-4 0 -12 -20 -19 -44z"/>
<path d="M1295 925 c-104 -29 -130 -41 -127 -61 6 -33 18 -36 58 -15 59 30
164 45 276 37 l98 -6 0 24 c0 20 -6 24 -46 30 -76 10 -205 6 -259 -9z"/>
<path d="M1450 720 c0 -11 0 -23 0 -27 0 -5 11 -11 24 -14 20 -6 25 -3 29 20
3 14 5 26 4 27 -1 1 -14 4 -29 8 -24 5 -28 3 -28 -14z"/>
<path d="M521 689 c-12 -39 -11 -42 23 -84 41 -50 109 -102 181 -138 l50 -25
44 26 43 25 -59 22 c-32 11 -79 35 -105 53 -45 31 -148 138 -148 154 0 23 -18
3 -29 -33z"/>
<path d="M1250 515 c0 -20 5 -25 25 -25 20 0 25 5 25 25 0 20 -5 25 -25 25
-20 0 -25 -5 -25 -25z"/>
<path d="M430 417 c-10 -36 -10 -41 12 -64 13 -14 35 -31 50 -39 24 -12 30
-11 68 10 l42 24 -38 12 c-20 7 -56 32 -79 55 l-43 42 -12 -40z"/>
</g>
</svg>
